Simulation
nRows=44
nColumns=15
endheader
time  TH_x TH_y TH_z SC_y  SC_z  SC_x  AC_y  AC_z  AC_x  GH_y  GH_z  GH_yy  EL_x  PS_y
0.0  0.000000  0.000000  0.000000  -32.89498579361343  1.3880193151997737  8.557843956989561  55.99131909394325  3.9231186008678764  -11.109122429441912  -144.4575078409999  3.545767861166437  175.23766953840646  22.39100305647982  0.000000
0.031  0.000000  0.000000  0.000000  -32.75830515968144  1.1261406855434788  8.225074154559836  55.71211811073784  3.4214780514097987  -11.24283508300544  -141.79328182463277  3.614101907954775  172.26333474083447  22.343310466331538  0.000000
0.062  0.000000  0.000000  0.000000  -32.38257107788482  0.8563354397303901  7.8086497572971885  55.44826789284926  2.7631722839319153  -11.285024830788497  -139.482452565426  3.5060499959947276  169.49137641904233  22.34514151317028  0.000000
0.093  0.000000  0.000000  0.000000  -31.996863637695125  0.5676490785582938  7.344290678755573  55.23891708757599  2.077592167921874  -11.240879298416358  -138.16505557049084  3.2343530744543147  167.60801107015098  22.332278653792756  0.000000
0.124  0.000000  0.000000  0.000000  -31.599615561000995  0.3069251717493101  6.861747197791591  55.07665991895392  1.4242663385051475  -11.134623815731919  -138.2656078714007  2.8382587666530608  167.1088469300428  22.326067467983478  0.000000
0.155  0.000000  0.000000  0.000000  -31.229213758544912  0.08009241996549833  6.398096854321875  54.95051096930564  0.8276497020892575  -10.986352397917392  -139.72037040918724  2.3340787773143266  167.9490302049207  22.31776451107718  0.000000
0.186  0.000000  0.000000  0.000000  -30.894954750258666  -0.110372047449307  5.983645363902279  54.851245754022216  0.2993476638775115  -10.827614761667345  -143.03144559259073  1.7337795647215113  170.62583510876343  22.305233136114996  0.000000
0.217  0.000000  0.000000  0.000000  -30.607709117940633  -0.26696715157392803  5.633551664469481  54.77811781573869  -0.14939376625239978  -10.675951123008685  -150.6333878862172  1.0502384931095663  177.57816951514587  22.2845677785992  0.000000
0.248  0.000000  0.000000  0.000000  -30.36579566928575  -0.39508319537196995  5.354481300455439  54.72981181324298  -0.5141112721586554  -10.543421727501908  171.2114861229846  0.36395468421626265  -144.9375669849209  22.253916057408016  0.000000
0.279  0.000000  0.000000  0.000000  -30.17250210787395  -0.4992627380856454  5.142364154855269  54.709864820849916  -0.7908208599026214  -10.433756763792575  66.1916216443682  0.720127505012175  -40.60671000267081  22.212032491914762  0.000000
0.31  0.000000  0.000000  0.000000  -30.026765288380936  -0.5832878130422336  4.993970017769371  54.71562123344051  -0.9802392008606853  -10.348770390069337  51.077284300654775  1.6510195860052221  -26.201454679659694  22.160860146077948  0.000000
0.34099999999999997  0.000000  0.000000  0.000000  -29.930037595514467  -0.6498173305117085  4.902312904577151  54.74923250458989  -1.0842885082865616  -10.287471566463985  45.72141056807062  2.691574566620208  -21.572462281705636  22.09966612425087  0.000000
0.372  0.000000  0.000000  0.000000  -29.880217670713044  -0.7010459185359955  4.860840272362568  54.80806669826889  -1.1053450035436416  -10.246966889097143  42.55914768717659  3.814737861232245  -19.15446023574184  22.030407450395725  0.000000
0.403  0.000000  0.000000  0.000000  -29.875467796137954  -0.7389553556756051  4.860424200963508  54.89244084939102  -1.0450854186065959  -10.223928291614419  40.290693149398734  5.011380014368664  -17.645421422290102  21.953060940231246  0.000000
0.434  0.000000  0.000000  0.000000  -29.912195205169976  -0.764503180554479  4.892806731348216  54.998914041005946  -0.9052477549591792  -10.213835333997633  38.50993239725562  6.271657293778715  -16.637711193208503  21.869531952635576  0.000000
0.46499999999999997  0.000000  0.000000  0.000000  -29.986144913025264  -0.7791156628422649  4.949153728074915  55.12590341408798  -0.6874392653374443  -10.21368431231816  37.0471358673843  7.587953710577532  -15.95995694291439  21.780045700118304  0.000000
0.496  0.000000  0.000000  0.000000  -30.093054216637185  -0.7837226643538615  5.020612280039764  55.2701209062378  -0.3926523135973001  -10.218845239547568  35.816826107461736  8.953675225024307  -15.52477878464675  21.685821879682763  0.000000
0.527  0.000000  0.000000  0.000000  -30.228738761728728  -0.7770342784857305  5.098735764187031  55.42882872618297  -0.022900399824140855  -10.224058556616162  34.77577820184505  10.367005131451366  -15.28499229329688  21.58762664809048  0.000000
0.558  0.000000  0.000000  0.000000  -30.385507287026225  -0.7559791840481833  5.179927190455588  55.5990831390518  0.417124512622394  -10.22464880155518  33.892269658940066  11.829135154553592  -15.202680829273946  21.48713297033495  0.000000
0.589  0.000000  0.000000  0.000000  -30.553085592481402  -0.7159909910886083  5.266758632996639  55.77654890186455  0.9188449290822451  -10.218090973965738  33.136473184095834  13.342206922711346  -15.24271221636681  21.387081384331335  0.000000
0.62  0.000000  0.000000  0.000000  -30.719316509305774  -0.6516011819497874  5.364149360624362  55.952966423213745  1.4678689091784753  -10.202907719612659  32.48148587263316  14.902294215698884  -15.374663463065211  21.28954236863039  0.000000
0.651  0.000000  0.000000  0.000000  -30.880037566681438  -0.5604574805235519  5.476723571010623  56.12201771204597  2.0451932525148884  -10.181023694101848  31.903642225746417  16.498398810685284  -15.57493651616374  21.191310130317014  0.000000
0.6819999999999999  0.000000  0.000000  0.000000  -31.03729819100606  -0.4446552609388066  5.6093579426539835  56.28143271305249  2.639490208891449  -10.153036732126282  31.364744878802025  18.11264288555059  -15.80133023899845  21.09006177643057  0.000000
0.713  0.000000  0.000000  0.000000  -31.191747964898994  -0.3056404591481633  5.745336454632704  56.43579591353944  3.26453285562521  -10.107158597618966  30.82447845785212  19.730412678987577  -16.006440913830062  20.985362999305018  0.000000
0.744  0.000000  0.000000  0.000000  -31.351737039577394  -0.14580456372336775  5.862743528039463  56.59265578169708  3.9366584134888223  -10.027056529645991  30.266639577595253  21.347663960620856  -16.168423543407112  20.877015762028325  0.000000
0.775  0.000000  0.000000  0.000000  -31.524608425614762  0.02929352354113225  5.963310946241039  56.752811799257906  4.651207714397212  -9.91042384237882  29.684197572697645  22.962082977523906  -16.278342719175267  20.766671451886317  0.000000
0.806  0.000000  0.000000  0.000000  -31.71456620451346  0.21448342869733358  6.051933124034468  56.92114880332861  5.3965802863641334  -9.761295768148685  29.07597596440344  24.57460313131491  -16.33411438154482  20.652338077060765  0.000000
0.837  0.000000  0.000000  0.000000  -31.929240218157545  0.40463857834042527  6.135063538181222  57.09869401363704  6.159583600169804  -9.582204645845206  28.432706480830387  26.18418941630765  -16.326286625532013  20.534743309950027  0.000000
0.868  0.000000  0.000000  0.000000  -32.17359798408018  0.5967032235674876  6.220933032208161  57.28802038011573  6.92415388168713  -9.378196388369263  27.748685783562014  27.790067338402466  -16.25189515967862  20.413713973467832  0.000000
0.899  0.000000  0.000000  0.000000  -32.45189089088677  0.79223320948452  6.321734362412371  57.48931473801735  7.669728077827193  -9.152356776163767  27.032501290472975  29.39196417921288  -16.120125504078334  20.288613882984492  0.000000
0.9299999999999999  0.000000  0.000000  0.000000  -32.76057797504805  0.9975234675872398  6.451489033788947  57.70038078169236  8.37657664713103  -8.910585157650805  26.307807937803577  30.99056456442882  -15.955600905654144  20.161483237685673  0.000000
0.961  0.000000  0.000000  0.000000  -33.09341941512743  1.2234352808146203  6.618010641066825  57.9153891804004  9.035429886048485  -8.651460995435036  25.60213254460836  32.584364638875165  -15.785227873044965  20.03413034133277  0.000000
0.992  0.000000  0.000000  0.000000  -33.44048295936972  1.4822305699615692  6.821872741815627  58.12727017502673  9.648170431632087  -8.371096388821607  24.940243957271875  34.169479641090945  -15.636406787182668  19.909200852368052  0.000000
1.023  0.000000  0.000000  0.000000  -33.79148178581179  1.7861503315788194  7.064464465655169  58.32839388956579  10.219379474204231  -8.06351060452066  24.338941229200636  35.73824587324497  -15.530057266566665  19.787912038807352  0.000000
1.054  0.000000  0.000000  0.000000  -34.137154968958065  2.145639966927418  7.347016003343047  58.51335478394358  10.754597225770231  -7.722572587915772  23.813021253940228  37.280584405822765  -15.489160175870687  19.67078044136574  0.000000
1.085  0.000000  0.000000  0.000000  -34.470221196585165  2.5656943914233845  7.667184229136116  58.67986332099062  11.262392593618868  -7.343107812428565  23.371845194224573  38.783993489189754  -15.532268283993686  19.558357392146917  0.000000
1.116  0.000000  0.000000  0.000000  -34.78274144339076  3.040872890622931  8.014535025581637  58.827970628999005  11.75592106793631  -6.922808034445042  23.019110643999436  40.235555483908726  -15.67216285364562  19.4504873209731  0.000000
1.147  0.000000  0.000000  0.000000  -35.0697427572107  3.5534265156475398  8.366169287265228  58.95840572527234  12.252580843159338  -6.462901142100021  22.75368001761466  41.627376486337795  -15.911026615010412  19.347164779708486  0.000000
1.178  0.000000  0.000000  0.000000  -35.326794878550096  4.077014207535137  8.692691696739228  59.070804616740936  12.768002307726016  -5.9697688335478025  22.567586999333948  42.95626429499361  -16.23851765837387  19.248580767110813  0.000000
1.209  0.000000  0.000000  0.000000  -35.553547299422284  4.58544749616554  8.969730307482292  59.16548357042019  13.308820519141713  -5.454698630057725  22.44426866560182  44.22137731340138  -16.630390624566942  19.15483298047024  0.000000
1.24  0.000000  0.000000  0.000000  -35.75455433224835  5.059396760953663  9.183091487599919  59.245164494197645  13.872246761153967  -4.929842957611039  22.36257714675461  45.4209852785548  -17.05679091820441  19.065679767630694  0.000000
1.271  0.000000  0.000000  0.000000  -35.93539124715004  5.488120104343238  9.33535728527461  59.31293239595665  14.445369060511721  -4.409199046279945  22.30086468230774  46.55120872745642  -17.488979969219884  18.98076440670186  0.000000
1.302  0.000000  0.000000  0.000000  -36.09948494002604  5.870625127389421  9.436299987100096  59.370944695327445  15.012159901060981  -3.9038675223165638  22.244005716358053  47.60842938995462  -17.90898420872105  18.89767332664531  0.000000
1.333  0.000000  0.000000  0.000000  -36.250478879455606  6.209011810730881  9.48628118963203  59.418077189860654  15.56792378894223  -3.4175001894679355  22.18196091570608  48.59070417703273  -18.30572780894296  18.81564104068489  0.000000
